<svg width="314" height="336" viewBox="0 0 314 336" fill="none" xmlns="http://www.w3.org/2000/svg">
<path d="M241.549 305.152C246.981 300.566 246.026 291.935 239.723 288.646L77.6699 204.098C74.1029 202.236 69.7681 202.694 66.6686 205.259L12.9138 249.746C7.08073 254.573 8.5201 263.88 15.5388 266.72L181.094 333.701C183.825 334.807 186.905 334.651 189.511 333.276L238.473 307.446C239.11 307.11 239.709 306.706 240.259 306.241L241.549 305.152Z" fill="#7B7D7F" fill-opacity="0.3"/>
<path d="M313.841 243.472V127.217L239.432 190.057V307.241L313.841 243.472Z" fill="#0475BC"/>
<path d="M239.432 198.026L59.4078 127.217V236.71L239.432 307.241V198.026Z" fill="#005082"/>
<path d="M238.123 198.326L59 127.296L141.511 59.7078L313.592 127.296L238.123 198.326Z" fill="#0475BC"/>
</svg>
