<svg width="613" height="591" viewBox="0 0 613 591" fill="none" xmlns="http://www.w3.org/2000/svg">
<g clip-path="url(#clip0)">
<rect x="297.336" y="423.504" width="50.2909" height="65.9369" fill="url(#paint0_linear)"/>
<g filter="url(#filter0_d)">
<path d="M297.247 462.397C297.667 461.192 298.804 460.384 300.08 460.384H345.214C346.397 460.384 347.469 461.079 347.952 462.158L374.791 522.095C375.68 524.08 374.228 526.321 372.053 526.321H279.206C277.141 526.321 275.694 524.284 276.373 522.334L297.247 462.397Z" fill="url(#paint1_linear)"/>
</g>
<mask id="path-3-inside-1" fill="white">
<path d="M467.288 346.655C468.723 347.484 469.217 349.32 468.362 350.74C449.946 381.335 422.056 405.134 388.881 418.497C354.778 432.234 317.056 434.151 281.736 423.943C246.416 413.735 215.533 391.989 194.016 362.177C172.499 332.365 161.589 296.204 163.027 259.467C164.464 222.729 178.166 187.531 201.947 159.491C225.727 131.452 258.214 112.186 294.224 104.768C330.234 97.351 367.691 102.21 400.617 118.569C432.646 134.484 458.591 160.389 474.561 192.33C475.301 193.812 474.666 195.604 473.17 196.318L433.615 215.201C432.12 215.914 430.333 215.279 429.58 213.803C418.417 191.909 400.499 174.154 378.443 163.196C355.491 151.791 329.38 148.404 304.277 153.575C279.175 158.745 256.528 172.176 239.951 191.722C223.374 211.269 213.822 235.805 212.82 261.415C211.818 287.025 219.423 312.232 234.422 333.014C249.422 353.796 270.95 368.955 295.572 376.071C320.193 383.187 346.489 381.851 370.263 372.275C393.107 363.073 412.357 346.772 425.197 325.818C426.063 324.405 427.894 323.911 429.329 324.739L467.288 346.655Z"/>
</mask>
<path d="M467.288 346.655C468.723 347.484 469.217 349.32 468.362 350.74C449.946 381.335 422.056 405.134 388.881 418.497C354.778 432.234 317.056 434.151 281.736 423.943C246.416 413.735 215.533 391.989 194.016 362.177C172.499 332.365 161.589 296.204 163.027 259.467C164.464 222.729 178.166 187.531 201.947 159.491C225.727 131.452 258.214 112.186 294.224 104.768C330.234 97.351 367.691 102.21 400.617 118.569C432.646 134.484 458.591 160.389 474.561 192.33C475.301 193.812 474.666 195.604 473.17 196.318L433.615 215.201C432.12 215.914 430.333 215.279 429.58 213.803C418.417 191.909 400.499 174.154 378.443 163.196C355.491 151.791 329.38 148.404 304.277 153.575C279.175 158.745 256.528 172.176 239.951 191.722C223.374 211.269 213.822 235.805 212.82 261.415C211.818 287.025 219.423 312.232 234.422 333.014C249.422 353.796 270.95 368.955 295.572 376.071C320.193 383.187 346.489 381.851 370.263 372.275C393.107 363.073 412.357 346.772 425.197 325.818C426.063 324.405 427.894 323.911 429.329 324.739L467.288 346.655Z" fill="url(#paint2_linear)" stroke="url(#paint3_linear)" stroke-width="50" mask="url(#path-3-inside-1)"/>
<path fill-rule="evenodd" clip-rule="evenodd" d="M452.634 71.2174C452.635 71.2163 452.652 71.2345 452.684 71.2752C452.648 71.2388 452.633 71.2185 452.634 71.2174ZM441.262 73.3985C448.192 71.424 451.662 71.5775 453.006 71.8008C453.621 72.9759 454.792 76.1353 454.874 83.1159C455.008 94.5028 451.979 110.999 444.587 132.079C429.92 173.91 400.366 227.373 358.807 281.717C317.247 336.06 273.034 379.058 235.955 404.891C217.27 417.909 201.839 425.552 190.534 428.773C183.604 430.747 180.134 430.594 178.79 430.37C178.175 429.195 177.004 426.036 176.922 419.055C176.788 407.668 179.817 391.172 187.209 370.092C190.235 361.462 193.895 352.336 198.163 342.81L176.728 317.394C144.48 383.575 136.288 437.113 160.446 454.358C197.629 480.902 297.37 411.411 383.223 299.147C469.077 186.883 508.533 74.3564 471.35 47.8128C447.526 30.8055 398.02 53.2236 342.939 101.057L372.282 115.232C380.378 108.564 388.258 102.563 395.841 97.2805C414.526 84.2624 429.957 76.6196 441.262 73.3985ZM178.104 430.198C178.105 430.197 178.13 430.206 178.176 430.227C178.126 430.21 178.103 430.199 178.104 430.198ZM179.162 430.954C179.161 430.955 179.144 430.937 179.113 430.896C179.148 430.932 179.163 430.953 179.162 430.954ZM453.692 71.9728C453.693 71.9716 453.67 71.9608 453.62 71.9438C453.647 71.9563 453.666 71.9643 453.678 71.9688C453.687 71.9721 453.692 71.9733 453.692 71.9728Z" fill="url(#paint4_linear)"/>
<circle cx="526.474" cy="50.3867" r="21.3867" fill="url(#paint5_linear)"/>
<circle cx="208.964" cy="61.9027" r="16.4513" fill="url(#paint6_linear)"/>
<circle cx="60.9026" cy="334.994" r="32.9026" fill="url(#paint7_linear)"/>
<path opacity="0.48" d="M520.919 169.407H112.344C106.615 169.407 101.97 174.054 101.97 179.786V434.157C101.97 439.889 106.615 444.536 112.344 444.536H520.919C526.648 444.536 531.293 439.889 531.293 434.157V179.786C531.293 174.054 526.648 169.407 520.919 169.407Z" fill="#01A8E2"/>
<path opacity="0.45" d="M522.797 464.622C522.484 473.632 520.421 482.805 515.379 490.273C509.027 499.678 498.711 505.5 488.72 510.973L460.392 526.571C447.978 533.413 434.892 540.417 420.74 540.614C410.726 540.765 401.036 537.46 391.404 534.688C346.42 521.7 299.037 519.879 252.535 523.161C228.715 524.843 205.012 527.8 181.413 531.36C162.532 534.166 139.872 543.502 122.845 532.45C104.3 520.39 92.9178 500.861 82.4397 481.901C73.3178 465.445 64.0683 448.584 61.0547 430.017C56.4184 401.327 67.5224 371.86 84.897 348.551C90.1221 341.59 95.8271 335.003 101.97 328.837V434.169C101.97 436.927 103.061 439.573 105.005 441.529C106.949 443.484 109.587 444.591 112.344 444.606H520.908C522.362 451.174 522.997 457.897 522.797 464.622Z" fill="#233D90"/>
<path opacity="0.45" d="M434.867 169.298H260.973C267.518 164.344 274.627 160.177 282.154 156.882C295.899 150.913 310.881 148.25 325.826 147.185C363.428 144.485 401.14 152.75 434.867 169.298Z" fill="#233D90"/>
<path d="M270.187 409.909C271.252 411.321 272.531 412.557 273.978 413.573C276.129 414.734 278.496 415.437 280.932 415.637L317.93 421.215C318.298 421.241 318.653 421.361 318.961 421.563C319.167 421.786 319.322 422.051 319.416 422.339C319.51 422.627 319.541 422.932 319.506 423.233C319.678 430.164 318.743 437.077 316.736 443.713C316.631 444.256 316.369 444.755 315.983 445.151C315.483 445.489 314.893 445.667 314.29 445.661C301.842 446.716 289.335 446.38 276.852 446.044C274.753 446.073 272.659 445.844 270.616 445.36C267.139 444.385 264.299 442.008 261.68 439.561C256.058 434.331 233.306 413.307 231.926 410.454C230.097 406.367 228.623 402.13 227.522 397.79C226.363 393.616 234.835 393.094 234.662 388.757C234.539 385.758 234.899 382.758 235.728 379.874C236.345 377.301 237.623 374.934 239.437 373.008C240.712 371.849 238.742 363.986 240.503 363.893C242.543 370.851 251.77 384.767 255.78 390.728C260.237 397.374 265.047 403.777 270.187 409.909Z" fill="#0475BC"/>
<path d="M270.187 409.909C271.252 411.321 272.531 412.557 273.978 413.573C276.129 414.734 278.496 415.437 280.932 415.637L317.93 421.215C318.298 421.241 318.653 421.361 318.961 421.563C319.167 421.786 319.322 422.051 319.416 422.339C319.51 422.627 319.541 422.932 319.506 423.233C319.678 430.164 318.743 437.077 316.736 443.713C316.631 444.256 316.369 444.755 315.983 445.151C315.483 445.489 314.893 445.667 314.29 445.661C301.842 446.716 289.335 446.38 276.852 446.044C274.753 446.073 272.659 445.844 270.616 445.36C267.139 444.385 264.299 442.008 261.68 439.561C256.058 434.331 233.306 413.307 231.926 410.454C230.097 406.367 228.623 402.13 227.522 397.79C226.363 393.616 234.835 393.094 234.662 388.757C234.539 385.758 234.899 382.758 235.728 379.874C236.345 377.301 237.623 374.934 239.437 373.008C240.712 371.849 238.742 363.986 240.503 363.893C242.543 370.851 251.77 384.767 255.78 390.728C260.237 397.374 265.047 403.777 270.187 409.909Z" fill="url(#paint8_linear)"/>
<path d="M176.569 351.16C174.077 353.383 171.752 355.786 169.614 358.35C164.491 364.647 161.083 372.139 157.907 379.607C149.458 399.483 142.098 420.74 144.288 442.228C144.33 443.521 144.679 444.786 145.308 445.916C146.306 447.195 147.707 448.099 149.284 448.479C153.352 449.778 157.699 449.836 162.034 449.871C178.736 450.021 195.462 450.172 212.152 449.36C214.737 449.233 217.473 449.036 219.617 447.574C221.183 446.375 222.433 444.81 223.256 443.017C227.742 434.575 229.052 424.81 232.529 415.927C237.165 404.331 249.915 393.789 247.226 381.567C235.728 329.672 181.831 346.371 176.569 351.16Z" fill="#68E1FD"/>
<path d="M176.569 351.16C174.077 353.383 171.752 355.786 169.614 358.35C164.491 364.647 161.083 372.139 157.907 379.607C149.458 399.483 142.098 420.74 144.288 442.228C144.33 443.521 144.679 444.786 145.308 445.916C146.306 447.195 147.707 448.099 149.284 448.479C153.352 449.778 157.699 449.836 162.034 449.871C178.736 450.021 195.462 450.172 212.152 449.36C214.737 449.233 217.473 449.036 219.617 447.574C221.183 446.375 222.433 444.81 223.256 443.017C227.742 434.575 229.052 424.81 232.529 415.927C237.165 404.331 249.915 393.789 247.226 381.567C235.728 329.672 181.831 346.371 176.569 351.16Z" fill="#0476BD"/>
<path d="M252.048 308.172C250.089 317.693 248.037 327.469 242.775 335.667C240.857 338.978 238.082 341.71 234.743 343.576C231.347 345.281 227.035 345.513 223.859 343.425C222.271 342.393 220.532 340.77 218.805 341.535C217.554 342.103 217.148 343.657 216.974 345.014C216.539 348.347 216.586 351.726 217.113 355.045C217.328 355.98 217.383 356.945 217.275 357.898C217.051 358.78 216.576 359.578 215.907 360.196C215.238 360.813 214.405 361.224 213.508 361.377C211.715 361.639 209.885 361.352 208.258 360.554C205.727 359.421 203.512 357.685 201.806 355.498C200.101 353.31 198.957 350.738 198.475 348.006C198.232 346.161 198.116 344.301 198.128 342.44C197.907 334.183 196.598 325.961 196.864 317.716C197.131 309.471 199.182 300.889 204.781 294.801C208.014 291.486 211.854 288.824 216.093 286.962C222.41 283.947 229.457 281.824 236.366 282.926C239.115 283.361 241.737 284.386 244.052 285.931C246.367 287.477 248.32 289.506 249.776 291.879C253.392 297.433 253.404 301.573 252.048 308.172Z" fill="#FFDAD2"/>
<path d="M269.307 287.194C269.777 283.324 269.059 279.402 267.247 275.951C265.435 272.5 262.616 269.682 259.165 267.874C256.093 266.343 252.674 265.694 249.359 264.812C241.593 262.725 234.14 259.269 226.177 258.527C218.214 257.785 209.058 260.579 205.511 267.804C204.862 269.126 204.224 270.726 202.799 271.074C202.02 271.158 201.232 271.087 200.48 270.866C195.16 269.926 190.373 274.472 187.974 279.308C184.103 287.136 183.906 296.262 184.752 304.948C185.528 312.984 187.58 321.67 194.024 326.564C194.662 327.051 195.601 327.492 196.215 326.97C196.496 326.676 196.672 326.296 196.713 325.891C197.362 322.844 197.603 319.725 197.432 316.614C197.305 314.295 196.934 311.836 197.536 309.552C198.139 307.267 200.075 305.099 202.439 305.168C204.63 305.168 206.392 307.209 206.936 309.343C207.325 311.516 207.242 313.746 206.693 315.884C207.041 316.753 208.258 315.71 208.466 314.805C210.066 307.522 210.425 299.37 215.479 293.931C216.507 294.996 217.256 296.299 217.658 297.723C218.413 296.94 219.374 296.386 220.43 296.123C221.485 295.861 222.593 295.901 223.627 296.239C225.094 296.878 226.442 297.76 227.614 298.848C239.924 308.462 266.722 305.609 269.307 287.194Z" fill="#3F3D56"/>
<path d="M180.115 363.035C176.221 365.865 174.32 370.84 174.204 375.641C174.088 380.442 179.165 410.906 183.952 419.557C187.661 426.283 195.392 443.84 207.133 448.688C210.611 450.126 262.016 449.523 285.87 446.937C285.719 441.289 285.441 435.642 285.07 429.994C285.105 429.249 284.879 428.515 284.432 427.918C283.83 427.292 282.972 423.199 282.114 423.199C268.205 423.257 254.18 427.512 240.271 427.837C238.251 427.968 236.223 427.847 234.233 427.478C232.604 427.071 231.042 426.43 229.596 425.576C218.863 419.499 212.929 407.566 208.733 395.958C205.522 387.006 202.938 377.74 198.301 369.379C196.655 366.398 195.183 363.499 191.938 362.189C188.125 360.647 183.65 360.473 180.115 363.035Z" fill="#68E1FD"/>
<path d="M180.115 363.035C176.221 365.865 174.32 370.84 174.204 375.641C174.088 380.442 179.165 410.906 183.952 419.557C187.661 426.283 195.392 443.84 207.133 448.688C210.611 450.126 262.016 449.523 285.87 446.937C285.719 441.289 285.441 435.642 285.07 429.994C285.105 429.249 284.879 428.515 284.432 427.918C283.83 427.292 282.972 423.199 282.114 423.199C268.205 423.257 254.18 427.512 240.271 427.837C238.251 427.968 236.223 427.847 234.233 427.478C232.604 427.071 231.042 426.43 229.596 425.576C218.863 419.499 212.929 407.566 208.733 395.958C205.522 387.006 202.938 377.74 198.301 369.379C196.655 366.398 195.183 363.499 191.938 362.189C188.125 360.647 183.65 360.473 180.115 363.035Z" fill="#0476BD"/>
<path d="M283.83 422.108C291.051 421.424 299.072 423.036 303.65 428.66C304.132 429.173 304.447 429.82 304.554 430.516C304.549 431.142 304.355 431.753 303.998 432.267C301.297 436.755 295.432 437.822 290.506 439.596C287.944 440.515 285.497 441.729 283.215 443.214C281.931 444.233 280.446 444.969 278.857 445.371C275.38 445.893 272.494 442.785 270.918 439.677C269.109 436.198 266.281 429.055 269.758 425.761C272.598 423.152 280.26 422.433 283.83 422.108Z" fill="#FFDAD2"/>
<path d="M343.627 420.323C344.912 421.054 346.017 422.064 346.86 423.28C347.272 423.895 347.516 424.606 347.569 425.344C347.622 426.083 347.482 426.822 347.162 427.489C346.615 428.311 345.869 428.981 344.994 429.438C338.585 433.253 330.726 433.937 324.235 437.555C322.904 438.523 321.377 439.188 319.761 439.503C318.812 439.524 317.87 439.326 317.01 438.924C316.149 438.521 315.393 437.926 314.8 437.184C313.618 435.707 312.711 434.03 312.123 432.232C304.531 412.286 332.708 413.365 343.627 420.323Z" fill="#FFDAD2"/>
<path d="M159.947 411.416H189.979V436.094C189.979 438.401 189.063 440.613 187.433 442.244C185.803 443.875 183.591 444.791 181.286 444.791H168.64C166.335 444.791 164.124 443.875 162.493 442.244C160.863 440.613 159.947 438.401 159.947 436.094V411.416Z" fill="white"/>
<path d="M187.951 417.4H197.049C198.971 417.4 200.813 418.164 202.172 419.523C203.53 420.882 204.294 422.726 204.294 424.648V427.652C204.294 429.574 203.53 431.418 202.172 432.777C200.813 434.136 198.971 434.9 197.049 434.9H187.951V417.4Z" stroke="white" stroke-width="3.3" stroke-miterlimit="10"/>
<path d="M525.556 444.258H118.742C115.183 444.258 112.298 447.142 112.298 450.7C112.298 454.258 115.183 457.142 118.742 457.142H525.556C529.115 457.142 532 454.258 532 450.7C532 447.142 529.115 444.258 525.556 444.258Z" fill="#0476BD"/>
<path d="M450.772 457.339H220.822V537.135H450.772V457.339Z" fill="#68E1FD"/>
<path d="M222.387 457.339H132.06V537.135H222.387V457.339Z" fill="#68E1FD"/>
<path d="M450.783 457.339H222.341V537.135H450.783V457.339Z" fill="url(#paint9_linear)"/>
<path d="M222.387 457.339H132.06V537.135H222.387V457.339Z" fill="url(#paint10_linear)"/>
<path opacity="0.18" d="M531.281 179.798V230.591H101.97V179.798C101.97 177.039 103.061 174.394 105.005 172.438C106.949 170.482 109.587 169.376 112.344 169.361H520.908C523.664 169.376 526.303 170.482 528.246 172.438C530.19 174.394 531.281 177.039 531.281 179.798Z" fill="#68E1FD"/>
<path d="M287.272 444.037H436.144C440.318 444.037 443.701 440.652 443.701 436.477C443.701 432.301 440.318 428.916 436.144 428.916H287.272C283.098 428.916 279.715 432.301 279.715 436.477C279.715 440.652 283.098 444.037 287.272 444.037Z" fill="#68E1FD"/>
<path d="M287.272 444.037H436.144C440.318 444.037 443.701 440.652 443.701 436.477C443.701 432.301 440.318 428.916 436.144 428.916H287.272C283.098 428.916 279.715 432.301 279.715 436.477C279.715 440.652 283.098 444.037 287.272 444.037Z" fill="#0476BD"/>
<path d="M338.897 444.061H453.148L483.284 367.604C483.684 366.585 483.829 365.484 483.707 364.396C483.585 363.308 483.2 362.267 482.584 361.362C481.968 360.457 481.141 359.716 480.175 359.203C479.208 358.69 478.131 358.421 477.036 358.42H387.382C383.045 358.428 378.81 359.739 375.227 362.183C371.643 364.627 368.876 368.091 367.283 372.127L338.897 444.061Z" fill="#0476BD"/>
<path d="M344.704 444.142H453.217L481.835 371.512C482.217 370.545 482.356 369.498 482.241 368.464C482.126 367.431 481.76 366.44 481.175 365.58C480.59 364.72 479.803 364.017 478.884 363.531C477.965 363.045 476.94 362.791 475.901 362.792H390.755C386.63 362.79 382.6 364.03 379.189 366.35C375.778 368.671 373.144 371.965 371.63 375.803L344.704 444.142Z" fill="#68E1FD"/>
<path d="M344.704 444.142H453.217L481.835 371.512C482.217 370.545 482.356 369.498 482.241 368.464C482.126 367.431 481.76 366.44 481.175 365.58C480.59 364.72 479.803 364.017 478.884 363.531C477.965 363.045 476.94 362.791 475.901 362.792H390.755C386.63 362.79 382.6 364.03 379.189 366.35C375.778 368.671 373.144 371.965 371.63 375.803L344.704 444.142Z" fill="#0476BD"/>
<path opacity="0.51" d="M467.555 334.427H306.907V343.472H467.555V334.427Z" fill="white"/>
<path d="M421.111 318.945H306.907V327.99H421.111V318.945Z" fill="white"/>
<path d="M513.177 318.945H436.724V327.99H513.177V318.945Z" fill="white"/>
<path d="M512.91 261.681H395.368V269.718H512.91V261.681Z" fill="white"/>
<path opacity="0.51" d="M496.497 275.957H370.749V283.993H496.497V275.957Z" fill="white"/>
<path d="M386.397 261.681H309.086V269.718H386.397V261.681Z" fill="white"/>
<path d="M512.91 289.803H343.001V297.839H512.91V289.803Z" fill="white"/>
<path opacity="0.51" d="M334.029 289.803H309.086V297.839H334.029V289.803Z" fill="white"/>
<path opacity="0.51" d="M512.91 304.078H400.758V312.115H512.91V304.078Z" fill="white"/>
<path d="M386.397 304.078H309.086V312.115H386.397V304.078Z" fill="white"/>
<path d="M358.799 275.62H309.086V283.657H358.799V275.62Z" fill="white"/>
<path d="M469.92 234.626H352.378V242.663H469.92V234.626Z" fill="white"/>
<path opacity="0.51" d="M453.507 248.902H327.759V256.938H453.507V248.902Z" fill="white"/>
<path d="M343.418 234.626H266.107V242.663H343.418V234.626Z" fill="white"/>
<path d="M468.877 217.985H351.334V226.022H468.877V217.985Z" fill="white"/>
<path d="M342.375 202.886H265.064V210.923H342.375V202.886Z" fill="white"/>
<path d="M342.375 189.11H265.064V197.146H342.375V189.11Z" fill="white"/>
<path d="M315.82 248.565H266.107V256.602H315.82V248.565Z" fill="white"/>
</g>
<defs>
<filter id="filter0_d" x="266.203" y="450.384" width="118.853" height="85.9369" filterUnits="userSpaceOnUse" color-interpolation-filters="sRGB">
<feFlood flood-opacity="0" result="BackgroundImageFix"/>
<feColorMatrix in="SourceAlpha" type="matrix" values="0 0 0 0 0 0 0 0 0 0 0 0 0 0 0 0 0 0 127 0"/>
<feOffset/>
<feGaussianBlur stdDeviation="5"/>
<feColorMatrix type="matrix" values="0 0 0 0 0 0 0 0 0 0 0 0 0 0 0 0 0 0 0.25 0"/>
<feBlend mode="normal" in2="BackgroundImageFix" result="effect1_dropShadow"/>
<feBlend mode="normal" in="SourceGraphic" in2="effect1_dropShadow" result="shape"/>
</filter>
<linearGradient id="paint0_linear" x1="332.979" y1="442.455" x2="308.946" y2="473.499" gradientUnits="userSpaceOnUse">
<stop stop-color="#00A8E2"/>
<stop offset="1" stop-color="#233D90"/>
</linearGradient>
<linearGradient id="paint1_linear" x1="347.062" y1="479.335" x2="330.485" y2="522.638" gradientUnits="userSpaceOnUse">
<stop stop-color="#00A8E2"/>
<stop offset="1" stop-color="#233D90"/>
</linearGradient>
<linearGradient id="paint2_linear" x1="421.866" y1="239.663" x2="236.08" y2="344.521" gradientUnits="userSpaceOnUse">
<stop stop-color="#00A8E2"/>
<stop offset="1" stop-color="#233D90"/>
</linearGradient>
<linearGradient id="paint3_linear" x1="381.703" y1="178.707" x2="307.672" y2="353.09" gradientUnits="userSpaceOnUse">
<stop stop-color="#00A8E2"/>
<stop offset="1" stop-color="#233D90"/>
</linearGradient>
<linearGradient id="paint4_linear" x1="386.639" y1="162.255" x2="236.932" y2="367.897" gradientUnits="userSpaceOnUse">
<stop stop-color="#00A8E2"/>
<stop offset="1" stop-color="#233D90"/>
</linearGradient>
<linearGradient id="paint5_linear" x1="535.403" y1="41.2935" x2="521.302" y2="65.175" gradientUnits="userSpaceOnUse">
<stop stop-color="#00A8E2"/>
<stop offset="1" stop-color="#233D90"/>
</linearGradient>
<linearGradient id="paint6_linear" x1="215.832" y1="54.908" x2="204.986" y2="73.2783" gradientUnits="userSpaceOnUse">
<stop stop-color="#00A8E2"/>
<stop offset="1" stop-color="#233D90"/>
</linearGradient>
<linearGradient id="paint7_linear" x1="74.6386" y1="321.005" x2="52.9453" y2="357.745" gradientUnits="userSpaceOnUse">
<stop stop-color="#00A8E2"/>
<stop offset="1" stop-color="#233D90"/>
</linearGradient>
<linearGradient id="paint8_linear" x1="233.34" y1="396.167" x2="291.591" y2="418.355" gradientUnits="userSpaceOnUse">
<stop offset="0.01"/>
<stop offset="0.12" stop-opacity="0.75"/>
<stop offset="1" stop-opacity="0"/>
</linearGradient>
<linearGradient id="paint9_linear" x1="60298.2" y1="17461.9" x2="59005.7" y2="29895.1" gradientUnits="userSpaceOnUse">
<stop offset="0.01"/>
<stop offset="0.12" stop-opacity="0.75"/>
<stop offset="1" stop-opacity="0"/>
</linearGradient>
<linearGradient id="paint10_linear" x1="7837.86" y1="18009.3" x2="10806.6" y2="33946" gradientUnits="userSpaceOnUse">
<stop offset="0.01"/>
<stop offset="0.12" stop-opacity="0.75"/>
<stop offset="1" stop-opacity="0"/>
</linearGradient>
<clipPath id="clip0">
<rect width="613" height="591" fill="white"/>
</clipPath>
</defs>
</svg>
