<svg width="603" height="246" viewBox="0 0 603 246" fill="none" xmlns="http://www.w3.org/2000/svg">
<rect width="603" height="246" rx="50" fill="white"/>
<path d="M262.539 131.296C262.539 136.96 261.627 142.048 259.803 146.56C258.075 151.072 255.675 154.864 252.603 157.936C249.531 161.008 245.931 163.36 241.803 164.992C237.675 166.624 233.211 167.44 228.411 167.44C223.611 167.44 219.147 166.672 215.019 165.136C210.987 163.6 207.435 161.392 204.363 158.512C201.387 155.536 199.035 151.888 197.307 147.568C195.675 143.248 194.859 138.304 194.859 132.736C194.859 126.976 195.723 121.888 197.451 117.472C199.275 113.056 201.723 109.312 204.795 106.24C207.867 103.168 211.467 100.864 215.595 99.328C219.723 97.696 224.187 96.88 228.987 96.88C233.787 96.88 238.203 97.648 242.235 99.184C246.363 100.624 249.915 102.784 252.891 105.664C255.963 108.544 258.315 112.144 259.947 116.464C261.675 120.784 262.539 125.728 262.539 131.296ZM247.131 132.016C247.131 127.696 246.603 124.048 245.547 121.072C244.491 118 243.099 115.504 241.371 113.584C239.643 111.664 237.675 110.272 235.467 109.408C233.259 108.544 230.955 108.112 228.555 108.112C226.251 108.112 223.995 108.496 221.787 109.264C219.579 110.032 217.611 111.328 215.883 113.152C214.155 114.976 212.763 117.424 211.707 120.496C210.747 123.568 210.267 127.408 210.267 132.016C210.267 136.24 210.795 139.888 211.851 142.96C212.907 146.032 214.299 148.576 216.027 150.592C217.755 152.512 219.723 153.952 221.931 154.912C224.235 155.776 226.539 156.208 228.843 156.208C231.147 156.208 233.403 155.824 235.611 155.056C237.819 154.288 239.787 152.992 241.515 151.168C243.243 149.248 244.587 146.752 245.547 143.68C246.603 140.512 247.131 136.624 247.131 132.016ZM316.528 111.856C313.456 110.416 310.576 109.408 307.888 108.832C305.296 108.16 302.704 107.824 300.112 107.824C296.08 107.824 293.008 108.592 290.896 110.128C288.88 111.568 287.872 113.536 287.872 116.032C287.872 117.952 288.64 119.632 290.176 121.072C291.712 122.416 294.88 123.76 299.68 125.104L304 126.4C310.24 128.32 314.944 130.816 318.112 133.888C321.376 136.96 323.008 141.088 323.008 146.272C323.008 152.608 320.608 157.744 315.808 161.68C311.008 165.52 304.432 167.44 296.08 167.44C291.568 167.44 287.344 167.008 283.408 166.144C279.568 165.376 276.112 164.272 273.04 162.832L276.496 151.6C279.28 152.944 282.256 154.048 285.424 154.912C288.592 155.776 291.856 156.208 295.216 156.208C299.344 156.208 302.56 155.488 304.864 154.048C307.168 152.608 308.32 150.4 308.32 147.424C308.32 144.64 307.264 142.672 305.152 141.52C303.136 140.272 299.968 138.976 295.648 137.632L291.184 136.336C285.136 134.32 280.624 131.776 277.648 128.704C274.768 125.632 273.328 121.6 273.328 116.608C273.328 113.632 273.952 110.944 275.2 108.544C276.448 106.144 278.176 104.08 280.384 102.352C282.592 100.624 285.232 99.28 288.304 98.32C291.472 97.36 294.928 96.88 298.672 96.88C302.224 96.88 305.824 97.216 309.472 97.888C313.216 98.56 316.672 99.616 319.84 101.056L316.528 111.856ZM352.098 166H337.266V98.032H348.786L350.802 107.104C353.97 103.936 357.378 101.44 361.026 99.616C364.674 97.792 368.946 96.88 373.842 96.88C378.738 96.88 382.722 97.84 385.794 99.76C388.962 101.68 391.362 104.368 392.994 107.824C396.258 104.368 399.858 101.68 403.794 99.76C407.826 97.84 412.242 96.88 417.042 96.88C424.146 96.88 429.474 98.848 433.026 102.784C436.674 106.624 438.498 112.096 438.498 119.2V166H423.666V121.504C423.666 117.376 422.754 114.208 420.93 112C419.202 109.792 416.322 108.688 412.29 108.688C406.146 108.688 400.482 111.424 395.298 116.896V166H380.466V121.504C380.466 117.376 379.554 114.208 377.73 112C376.002 109.792 373.122 108.688 369.09 108.688C362.946 108.688 357.282 111.568 352.098 117.328V166ZM521.008 131.296C521.008 136.96 520.096 142.048 518.272 146.56C516.544 151.072 514.144 154.864 511.072 157.936C508 161.008 504.4 163.36 500.272 164.992C496.144 166.624 491.68 167.44 486.88 167.44C482.08 167.44 477.616 166.672 473.488 165.136C469.456 163.6 465.904 161.392 462.832 158.512C459.856 155.536 457.504 151.888 455.776 147.568C454.144 143.248 453.328 138.304 453.328 132.736C453.328 126.976 454.192 121.888 455.92 117.472C457.744 113.056 460.192 109.312 463.264 106.24C466.336 103.168 469.936 100.864 474.064 99.328C478.192 97.696 482.656 96.88 487.456 96.88C492.256 96.88 496.672 97.648 500.704 99.184C504.832 100.624 508.384 102.784 511.36 105.664C514.432 108.544 516.784 112.144 518.416 116.464C520.144 120.784 521.008 125.728 521.008 131.296ZM505.6 132.016C505.6 127.696 505.072 124.048 504.016 121.072C502.96 118 501.568 115.504 499.84 113.584C498.112 111.664 496.144 110.272 493.936 109.408C491.728 108.544 489.424 108.112 487.024 108.112C484.72 108.112 482.464 108.496 480.256 109.264C478.048 110.032 476.08 111.328 474.352 113.152C472.624 114.976 471.232 117.424 470.176 120.496C469.216 123.568 468.736 127.408 468.736 132.016C468.736 136.24 469.264 139.888 470.32 142.96C471.376 146.032 472.768 148.576 474.496 150.592C476.224 152.512 478.192 153.952 480.4 154.912C482.704 155.776 485.008 156.208 487.312 156.208C489.616 156.208 491.872 155.824 494.08 155.056C496.288 154.288 498.256 152.992 499.984 151.168C501.712 149.248 503.056 146.752 504.016 143.68C505.072 140.512 505.6 136.624 505.6 132.016Z" fill="url(#paint0_linear)"/>
<mask id="path-3-inside-1" fill="white">
<path d="M185.703 150.5C187.138 151.328 187.637 153.169 186.724 154.552C181.145 163.001 173.117 169.578 163.682 173.379C153.317 177.554 141.852 178.137 131.117 175.034C120.382 171.931 110.996 165.322 104.457 156.262C97.9173 147.201 94.6014 136.211 95.0383 125.045C95.4752 113.88 99.6397 103.182 106.867 94.6599C114.095 86.1379 123.968 80.2824 134.913 78.0281C145.857 75.7738 157.241 77.2505 167.248 82.2226C176.358 86.7487 183.848 93.9337 188.749 102.793C189.552 104.242 188.91 106.038 187.415 106.752L179.162 110.692C177.667 111.406 175.887 110.764 175.047 109.336C171.63 103.523 166.587 98.8053 160.509 95.7857C153.533 92.3197 145.598 91.2902 137.968 92.8617C130.339 94.4332 123.456 98.5151 118.418 104.456C113.379 110.397 110.476 117.854 110.172 125.637C109.867 133.421 112.179 141.082 116.737 147.398C121.296 153.715 127.839 158.322 135.322 160.484C142.806 162.647 150.798 162.241 158.023 159.331C164.318 156.795 169.714 152.486 173.575 146.958C174.524 145.6 176.349 145.099 177.783 145.927L185.703 150.5Z"/>
</mask>
<path d="M185.703 150.5C187.138 151.328 187.637 153.169 186.724 154.552C181.145 163.001 173.117 169.578 163.682 173.379C153.317 177.554 141.852 178.137 131.117 175.034C120.382 171.931 110.996 165.322 104.457 156.262C97.9173 147.201 94.6014 136.211 95.0383 125.045C95.4752 113.88 99.6397 103.182 106.867 94.6599C114.095 86.1379 123.968 80.2824 134.913 78.0281C145.857 75.7738 157.241 77.2505 167.248 82.2226C176.358 86.7487 183.848 93.9337 188.749 102.793C189.552 104.242 188.91 106.038 187.415 106.752L179.162 110.692C177.667 111.406 175.887 110.764 175.047 109.336C171.63 103.523 166.587 98.8053 160.509 95.7857C153.533 92.3197 145.598 91.2902 137.968 92.8617C130.339 94.4332 123.456 98.5151 118.418 104.456C113.379 110.397 110.476 117.854 110.172 125.637C109.867 133.421 112.179 141.082 116.737 147.398C121.296 153.715 127.839 158.322 135.322 160.484C142.806 162.647 150.798 162.241 158.023 159.331C164.318 156.795 169.714 152.486 173.575 146.958C174.524 145.6 176.349 145.099 177.783 145.927L185.703 150.5Z" stroke="url(#paint1_linear)" stroke-width="20" mask="url(#path-3-inside-1)"/>
<path fill-rule="evenodd" clip-rule="evenodd" d="M182.327 68.3369C182.328 68.336 182.338 68.348 182.354 68.3755C182.335 68.3515 182.327 68.3377 182.327 68.3369ZM179.847 69.3267C181.19 68.944 182.043 68.8473 182.536 68.8383C182.672 69.2962 182.827 70.1126 182.843 71.4656C182.882 74.7896 181.994 79.6983 179.764 86.0563C175.344 98.6626 166.414 114.831 153.823 131.295C141.232 147.759 127.859 160.755 116.685 168.54C111.049 172.467 106.454 174.729 103.153 175.669C101.81 176.052 100.957 176.148 100.464 176.157C100.328 175.7 100.173 174.883 100.157 173.53C100.118 170.206 101.007 165.297 103.236 158.939C104.103 156.465 105.145 153.854 106.353 151.13L99.2025 142.651C89.4015 162.765 86.9117 179.037 94.2538 184.278C105.555 192.345 135.869 171.225 161.962 137.105C188.055 102.985 200.047 68.7851 188.746 60.7177C181.505 55.5488 166.459 62.3622 149.719 76.9002L159.505 81.6279C161.845 79.7119 164.122 77.9834 166.315 76.4556C171.951 72.5292 176.546 70.267 179.847 69.3267ZM99.9066 176.112C99.9072 176.111 99.9232 176.114 99.9526 176.125C99.9207 176.118 99.906 176.113 99.9066 176.112ZM100.673 176.659C100.672 176.66 100.662 176.648 100.647 176.62C100.666 176.644 100.674 176.658 100.673 176.659ZM183.048 68.8709C183.079 68.8776 183.094 68.8828 183.093 68.8838C183.093 68.8847 183.077 68.8814 183.048 68.8709Z" fill="url(#paint2_linear)"/>
<circle cx="205.5" cy="61.5" r="6.5" fill="#00A8E2"/>
<circle cx="109" cy="65" r="5" fill="#00A8E2"/>
<circle cx="64" cy="148" r="10" fill="#233D90"/>
<defs>
<linearGradient id="paint0_linear" x1="358" y1="113.5" x2="358" y2="161" gradientUnits="userSpaceOnUse">
<stop stop-color="#00A8E2"/>
<stop offset="1" stop-color="#233D90"/>
</linearGradient>
<linearGradient id="paint1_linear" x1="161.5" y1="100.5" x2="139" y2="153.5" gradientUnits="userSpaceOnUse">
<stop stop-color="#00A8E2"/>
<stop offset="1" stop-color="#233D90"/>
</linearGradient>
<linearGradient id="paint2_linear" x1="163" y1="95.5" x2="117.5" y2="158" gradientUnits="userSpaceOnUse">
<stop stop-color="#00A8E2"/>
<stop offset="1" stop-color="#233D90"/>
</linearGradient>
</defs>
</svg>
