<svg width="160" height="182" viewBox="0 0 160 182" fill="none" xmlns="http://www.w3.org/2000/svg">
<rect x="82" y="120" width="15" height="20" fill="#233D90"/>
<g filter="url(#filter0_d)">
<path d="M81.2969 133.009C81.718 131.806 82.8536 131 84.1284 131H95.0602C96.2408 131 97.3116 131.692 97.796 132.769L104.096 146.769C104.989 148.754 103.537 151 101.36 151H79.2284C77.1619 151 75.7142 148.959 76.3969 147.009L81.2969 133.009Z" fill="#233D90"/>
</g>
<mask id="path-3-inside-1" fill="white">
<path d="M131.703 95.5C133.138 96.3284 133.637 98.169 132.724 99.5517C127.145 108.001 119.117 114.578 109.682 118.379C99.3167 122.554 87.852 123.137 77.1172 120.034C66.3824 116.931 56.9963 110.322 50.4568 101.262C43.9173 92.2009 40.6013 81.2108 41.0382 70.0451C41.4751 58.8795 45.6396 48.182 52.8671 39.6599C60.0945 31.1379 69.9684 25.2824 80.9128 23.0281C91.8572 20.7738 103.241 22.2505 113.248 27.2226C122.358 31.7487 129.848 38.9337 134.749 47.7927C135.552 49.2424 134.91 51.0384 133.415 51.7522L125.162 55.6919C123.667 56.4057 121.887 55.7641 121.047 54.3358C117.63 48.5226 112.587 43.8053 106.509 40.7857C99.5334 37.3197 91.5976 36.2902 83.9682 37.8617C76.3389 39.4332 69.4558 43.5151 64.4176 49.4558C59.3793 55.3965 56.4763 62.8537 56.1717 70.6373C55.8672 78.4208 58.1787 86.0821 62.7374 92.3983C67.296 98.7145 73.8391 103.322 81.3223 105.484C88.8055 107.647 96.7976 107.241 104.023 104.331C110.318 101.795 115.714 97.4863 119.575 91.9579C120.524 90.5996 122.348 90.099 123.783 90.9275L131.703 95.5Z"/>
</mask>
<path d="M131.703 95.5C133.138 96.3284 133.637 98.169 132.724 99.5517C127.145 108.001 119.117 114.578 109.682 118.379C99.3167 122.554 87.852 123.137 77.1172 120.034C66.3824 116.931 56.9963 110.322 50.4568 101.262C43.9173 92.2009 40.6013 81.2108 41.0382 70.0451C41.4751 58.8795 45.6396 48.182 52.8671 39.6599C60.0945 31.1379 69.9684 25.2824 80.9128 23.0281C91.8572 20.7738 103.241 22.2505 113.248 27.2226C122.358 31.7487 129.848 38.9337 134.749 47.7927C135.552 49.2424 134.91 51.0384 133.415 51.7522L125.162 55.6919C123.667 56.4057 121.887 55.7641 121.047 54.3358C117.63 48.5226 112.587 43.8053 106.509 40.7857C99.5334 37.3197 91.5976 36.2902 83.9682 37.8617C76.3389 39.4332 69.4558 43.5151 64.4176 49.4558C59.3793 55.3965 56.4763 62.8537 56.1717 70.6373C55.8672 78.4208 58.1787 86.0821 62.7374 92.3983C67.296 98.7145 73.8391 103.322 81.3223 105.484C88.8055 107.647 96.7976 107.241 104.023 104.331C110.318 101.795 115.714 97.4863 119.575 91.9579C120.524 90.5996 122.348 90.099 123.783 90.9275L131.703 95.5Z" stroke="url(#paint0_linear)" stroke-width="20" mask="url(#path-3-inside-1)"/>
<path fill-rule="evenodd" clip-rule="evenodd" d="M128.327 13.3369C128.328 13.336 128.338 13.348 128.353 13.3755C128.334 13.3515 128.327 13.3377 128.327 13.3369ZM125.847 14.3267C127.19 13.944 128.043 13.8473 128.536 13.8383C128.672 14.2962 128.827 15.1126 128.843 16.4656C128.882 19.7896 127.993 24.6983 125.764 31.0563C121.344 43.6626 112.414 59.831 99.8231 76.2949C87.2323 92.7589 73.8588 105.755 62.6848 113.54C57.0492 117.467 52.4536 119.729 49.1534 120.669C47.8102 121.052 46.9569 121.148 46.464 121.157C46.3281 120.7 46.1731 119.883 46.1572 118.53C46.1182 115.206 47.0065 110.297 49.2359 103.939C50.1034 101.465 51.1447 98.8538 52.3533 96.1298L45.2025 87.6508C35.4014 107.765 32.9117 124.037 40.2538 129.278C51.5547 137.345 81.8687 116.225 107.962 82.1051C134.055 47.9848 146.047 13.7851 134.746 5.71773C127.505 0.54875 112.459 7.36221 95.7186 21.9002L105.505 26.6279C107.845 24.7119 110.122 22.9834 112.315 21.4556C117.951 17.5292 122.546 15.267 125.847 14.3267ZM45.9066 121.112C45.9072 121.111 45.9231 121.114 45.9525 121.125C45.9206 121.118 45.9059 121.113 45.9066 121.112ZM46.6727 121.659C46.6719 121.66 46.6624 121.648 46.6465 121.62C46.6655 121.644 46.6734 121.658 46.6727 121.659ZM129.048 13.8709C129.079 13.8776 129.094 13.8828 129.093 13.8838C129.093 13.8847 129.077 13.8814 129.048 13.8709Z" fill="url(#paint1_linear)"/>
<circle cx="151.5" cy="6.5" r="6.5" fill="#00A8E2"/>
<circle cx="55" cy="10" r="5" fill="#00A8E2"/>
<circle cx="10" cy="93" r="10" fill="#233D90"/>
<defs>
<filter id="filter0_d" x="66.226" y="121" width="48.1377" height="40" filterUnits="userSpaceOnUse" color-interpolation-filters="sRGB">
<feFlood flood-opacity="0" result="BackgroundImageFix"/>
<feColorMatrix in="SourceAlpha" type="matrix" values="0 0 0 0 0 0 0 0 0 0 0 0 0 0 0 0 0 0 127 0"/>
<feOffset/>
<feGaussianBlur stdDeviation="5"/>
<feColorMatrix type="matrix" values="0 0 0 0 0 0 0 0 0 0 0 0 0 0 0 0 0 0 0.25 0"/>
<feBlend mode="normal" in2="BackgroundImageFix" result="effect1_dropShadow"/>
<feBlend mode="normal" in="SourceGraphic" in2="effect1_dropShadow" result="shape"/>
</filter>
<linearGradient id="paint0_linear" x1="107.5" y1="45.5" x2="85" y2="98.5" gradientUnits="userSpaceOnUse">
<stop stop-color="#00A8E2"/>
<stop offset="1" stop-color="#233D90"/>
</linearGradient>
<linearGradient id="paint1_linear" x1="109" y1="40.5" x2="63.5" y2="103" gradientUnits="userSpaceOnUse">
<stop stop-color="#00A8E2"/>
<stop offset="1" stop-color="#233D90"/>
</linearGradient>
</defs>
</svg>
